<svg xmlns="http://www.w3.org/2000/svg" viewBox="0 0 328.23 385.57"><defs><style>.cls-1{fill:#fff;}</style></defs><g id="Capa_2" data-name="Capa 2"><g id="Capa_1-2" data-name="Capa 1"><path class="cls-1" d="M171.66,0c3.79.7,7.59,1.31,11.35,2.1,31.79,6.71,51.79,26,60.06,57.21C247.9,77.55,248,96.25,246.65,115c-1.11,15.45-4.16,30.51-10.35,44.77-10.4,24-27.32,40.82-53.58,46-28.32,5.59-54.22.7-75-21-11.9-12.47-18.6-27.86-22.32-44.46-6.26-27.89-7.38-56,.5-83.7C94.85,25.25,116.2,7,148.26,1.41c2.05-.36,4.06-.94,6.08-1.41ZM226,95.52c-.74-6.61-1.14-17.33-3.26-27.7C218.63,47.91,207.69,33,187.93,26a71.88,71.88,0,0,0-37.74-2.88c-17.07,3.16-30.16,11.73-38.54,27-4.87,8.9-7,18.62-8.13,28.66-2.34,21.66-1.56,43.11,5,64,7.39,23.43,21.38,40.14,47.58,42.86,25.11,2.61,46.16-5.64,58.41-30.21C223.28,137.79,225.19,118.79,226,95.52Z"/><path class="cls-1" d="M151.29,385.57c-25.42-.09-62.75-5.33-98.72-18.14-13-4.65-25.39-11.16-38.22-16.43-8.77-3.59-11.76-10.57-12.79-19.11-2-16.65-2.37-33.28.74-49.82,4.1-21.78,15.38-37.63,37.59-43.83,22.52-6.28,43.24-16.34,62.86-28.89,6.12-3.91,12.66-2.78,16.11,2.7s1.67,11.47-4.32,15.5l-.62.44c-20.45,13.09-42,24-65.54,30.22C34.17,262,26.49,271,23.85,284.91A138.69,138.69,0,0,0,23,328.33a5.19,5.19,0,0,0,3.25,4.43c22,11.43,45.45,18.91,69.62,24.17a322.8,322.8,0,0,0,83.35,6.7c40.53-1.81,79.53-10.34,116.53-27.53,6.66-3.09,10.2-6.58,10.38-14.49.32-13.71.87-27.34-2.74-40.7-3.08-11.37-10.1-18.81-21.82-22-24.45-6.72-47.09-17.54-68.2-31.53-7.07-4.68-7.53-13.6-1.11-18.29,3.86-2.81,8.29-2.43,13.34.32,13,7.06,25.78,14.43,39.16,20.59,9.72,4.48,20.35,6.92,30.36,10.8,14.23,5.53,23.17,16.23,28,30.54,5.22,15.61,5.66,31.74,4.8,47.95-.29,5.49-1.27,10.94-1.82,16.42-.7,6.85-4.34,11.27-10.39,14.5a288.51,288.51,0,0,1-67.56,25.52C220.47,382.48,192.41,385.6,151.29,385.57Z"/></g></g></svg>